<svg height="512pt" viewBox="-11 0 512 512" width="512pt" xmlns="http://www.w3.org/2000/svg"><path d="m425.921875 432.199219c39.800781-43.5625 64.082031-101.546875 64.082031-165.203125 0-135.308594-109.691406-245-245-245-135.3125 0-245.003906 109.691406-245.003906 245 0 63.65625 24.28125 121.640625 64.082031 165.203125zm0 0" fill="#1d3260"/><path d="m66.332031 196.730469h357.339844v236.203125h-357.339844zm0 0" fill="#0cb0ea"/><path d="m124.5625 404.242188v-178.820313c0-15.84375 12.84375-28.691406 28.6875-28.691406h-86.917969v236.203125h86.917969c-15.84375 0-28.6875-12.84375-28.6875-28.691406zm0 0" fill="#0d9cda"/><path d="m194.871094 227.566406v20.660156c0 9.019532 7.3125 16.332032 16.332031 16.332032 9.023437 0 16.335937-7.3125 16.335937-16.332032v-20.660156zm0 0" fill="#b8dcf2"/><path d="m260.210938 227.566406v20.660156c0 9.019532 7.3125 16.332032 16.335937 16.332032 9.019531 0 16.332031-7.3125 16.332031-16.332032v-20.660156zm0 0" fill="#b8dcf2"/><path d="m194.871094 227.566406v20.660156c0 1.261719.15625 2.488282.429687 3.667969 1.667969-7.25 8.144531-12.664062 15.902344-12.664062 7.761719 0 14.238281 5.414062 15.90625 12.664062.273437-1.179687.429687-2.40625.429687-3.667969v-20.660156zm0 0" fill="#89c2e5"/><path d="m260.210938 227.566406v20.660156c0 1.261719.15625 2.488282.429687 3.667969 1.667969-7.25 8.144531-12.664062 15.90625-12.664062 7.757813 0 14.234375 5.414062 15.902344 12.664062.273437-1.179687.429687-2.40625.429687-3.667969v-20.660156zm0 0" fill="#89c2e5"/><path d="m325.953125 197.148438c.054687.746093.089844 1.492187.089844 2.253906 0 16.796875-13.617188 30.414062-30.414063 30.414062h-101.25c-16.800781 0-30.417968-13.617187-30.417968-30.414062 0-.761719.035156-1.507813.089843-2.253906zm0 0" fill="#deeefa"/><path d="m215.886719 199.402344c0-.761719.039062-1.507813.09375-2.253906h-51.929688c-.054687.746093-.089843 1.492187-.089843 2.253906 0 16.796875 13.617187 30.414062 30.417968 30.414062h51.925782c-16.796876 0-30.417969-13.617187-30.417969-30.414062zm0 0" fill="#b8dcf2"/><path d="m280.503906 411.65625h-71c-7.015625 0-13.828125-2.078125-19.625-5.914062 4.050782 8.179687 9.570313 14.085937 14.152344 17.980468 4.503906 3.828125 10.214844 5.929688 16.125 5.929688h49.691406c5.910156 0 11.625-2.105469 16.128906-5.929688 4.582032-3.894531 10.097657-9.800781 14.152344-17.980468-5.800781 3.835937-12.613281 5.914062-19.625 5.914062zm0 0" fill="#8e4739"/><path d="m306.980469 383.773438c-1.886719-4.265626.042969-9.257813 4.308593-11.144532l22.980469-10.160156c5.402344-2.386719 11.34375-4.335938 18.695313-6.125 8.257812-2.015625 13.863281-9.660156 13.335937-18.1875-.980469-15.789062-21.082031-22.375-31.175781-9.878906-2.933594 3.628906-8.253906 4.195312-11.882812 1.265625-3.628907-2.933594-4.195313-8.253907-1.261719-11.882813 19.832031-24.550781 59.261719-11.539062 61.183593 19.449219 1.039063 16.703125-9.980468 31.695313-26.195312 35.648437-6.359375 1.550782-11.402344 3.195313-15.867188 5.167969l-22.976562 10.160157c-4.277344 1.894531-9.261719-.054688-11.144531-4.3125zm0 0" fill="#8e4739"/><path d="m122.695312 479.328125c35.992188 20.777344 77.757813 32.671875 122.308594 32.671875 44.546875 0 86.3125-11.894531 122.304688-32.671875zm0 0" fill="#b8dcf2"/><path d="m228.800781 479.328125h-106.105469c31.339844 18.09375 67.0625 29.445313 105.179688 32.078125-14.566406-5.167969-13.914062-27.636719.925781-32.078125zm0 0" fill="#89c2e5"/><path d="m424.125 429.199219h-358.246094c-1.375 0-2.699218.207031-3.953125.59375 19.480469 21.890625 42.820313 40.257812 68.957031 54.042969h228.234376c26.140624-13.785157 49.480468-32.152344 68.957031-54.042969-1.25-.386719-2.578125-.59375-3.949219-.59375zm0 0" fill="#deeefa"/><path d="m418.964844 32.671875c.050781-.746094.089844-1.496094.089844-2.253906 0-16.800781-13.617188-30.417969-30.417969-30.417969h-287.269531c-16.800782 0-30.417969 13.617188-30.417969 30.417969 0 .757812.035156 1.507812.089843 2.253906zm0 0" fill="#0cb0ea"/><path d="m209.246094 16.335938c0-7.566407 4.859375-13.980469 11.621094-16.335938h-119.5c-16.800782 0-30.417969 13.617188-30.417969 30.417969 0 .757812.039062 1.507812.089843 2.253906h149.828126c-6.761719-2.359375-11.621094-8.773437-11.621094-16.335937zm0 0" fill="#0d9cda"/><path d="m424.125 30.417969h-358.246094c-7.433594 0-13.519531 6.082031-13.519531 13.519531v143.070312c0 7.4375 6.082031 13.519532 13.519531 13.519532h358.246094c7.433594 0 13.519531-6.082032 13.519531-13.519532v-143.070312c0-7.4375-6.085937-13.519531-13.519531-13.519531zm0 0" fill="#deeefa"/><path d="m409.761719 86.300781c0 9.019531-7.316407 16.335938-16.335938 16.335938-9.023437 0-16.335937-7.316407-16.335937-16.335938 0-9.023437 7.3125-16.335937 16.335937-16.335937 9.019531 0 16.335938 7.3125 16.335938 16.335937zm0 0" fill="#30aee5"/><path d="m409.761719 139.519531c0 9.023438-7.316407 16.335938-16.335938 16.335938-9.023437 0-16.335937-7.3125-16.335937-16.335938 0-9.019531 7.3125-16.335937 16.335937-16.335937 9.019531 0 16.335938 7.316406 16.335938 16.335937zm0 0" fill="#f94862"/><path d="m112.066406 199.777344v-67.96875c0-9.023438-7.3125-16.335938-16.332031-16.335938-9.023437 0-16.335937 7.3125-16.335937 16.335938v67.96875c0 9.019531 7.3125 16.332031 16.335937 16.332031 9.019531 0 16.332031-7.3125 16.332031-16.332031zm0 0" fill="#b8dcf2"/><path d="m95.734375 168.046875c-9.023437 0-16.335937-7.316406-16.335937-16.335937v48.066406c0 9.019531 7.3125 16.332031 16.335937 16.332031 9.019531 0 16.332031-7.3125 16.332031-16.332031v-48.066406c0 9.019531-7.3125 16.335937-16.332031 16.335937zm0 0" fill="#89c2e5"/><path d="m140.75 30.417969h208.503906v170.109375h-208.503906zm0 0" fill="#b8dcf2"/><path d="m186.773438 168.179688v-105.414063c0-17.863281 14.484374-32.347656 32.347656-32.347656h-78.367188v170.109375h78.367188c-17.863282 0-32.347656-14.484375-32.347656-32.347656zm0 0" fill="#89c2e5"/><path d="m260.210938 115.472656c0 .765625-.078126 1.515625-.1875 2.253906h43.152343c.027344-.75.054688-1.5.054688-2.253906 0-32.160156-26.070313-58.230468-58.226563-58.230468-.378906 0-.75.023437-1.128906.03125v43.046874c.375-.027343.746094-.054687 1.128906-.054687 8.394532 0 15.207032 6.808594 15.207032 15.207031zm0 0" fill="#0f89cb"/><path d="m229.980469 117.726562c-.109375-.738281-.183594-1.488281-.183594-2.253906 0-8.398437 6.808594-15.207031 15.207031-15.207031v-43.023437c-32.160156 0-58.230468 26.070312-58.230468 58.230468 0 .753906.027343 1.503906.054687 2.253906zm0 0" fill="#0d9cda"/><path d="m245.003906 130.679688c-.382812 0-.753906-.03125-1.128906-.058594v43.050781c.378906.007813.75.03125 1.128906.03125 32.15625 0 58.226563-26.070313 58.226563-58.230469h-43.019531c0 8.398438-6.8125 15.207032-15.207032 15.207032zm0 0" fill="#0d9cda"/><path d="m245.003906 173.699219v-43.019531c-8.402344 0-15.207031-6.808594-15.207031-15.207032h-43.023437c0 32.160156 26.070312 58.226563 58.230468 58.226563zm0 0" fill="#0f89cb"/><path d="m266.066406 115.472656c0 11.632813-9.429687 21.0625-21.0625 21.0625-11.632812 0-21.066406-9.429687-21.066406-21.0625 0-11.632812 9.433594-21.0625 21.066406-21.0625 11.632813 0 21.0625 9.429688 21.0625 21.0625zm0 0" fill="#1075bb"/><path d="m324.917969 297.066406h-159.832031c-3.84375 0-6.957032 3.117188-6.957032 6.957032v39.945312c0 31.539062 16.398438 51.207031 28.328125 61.34375 6.433594 5.472656 14.597657 8.476562 23.042969 8.476562h71.003906c8.445313 0 16.605469-3.003906 23.042969-8.476562 11.929687-10.136719 28.328125-29.804688 28.328125-61.34375v-39.945312c0-3.839844-3.113281-6.957032-6.957031-6.957032zm0 0" fill="#aa6355"/><path d="m211.203125 343.96875v-39.945312c0-3.84375 3.117187-6.957032 6.960937-6.957032h-53.078124c-3.84375 0-6.957032 3.113282-6.957032 6.957032v39.945312c0 31.539062 16.398438 51.207031 28.328125 61.34375 6.433594 5.46875 14.597657 8.472656 23.042969 8.472656h53.078125c-8.445313 0-16.609375-3.003906-23.046875-8.472656-11.925781-10.136719-28.328125-29.804688-28.328125-61.34375zm0 0" fill="#975242"/><path d="m196.871094 456.515625c0-15.085937 12.230468-27.316406 27.320312-27.316406h-158.3125c-1.375 0-2.699218.207031-3.953125.59375 19.480469 21.890625 42.820313 40.257812 68.957031 54.042969h93.304688c-15.085938 0-27.316406-12.230469-27.316406-27.320313zm0 0" fill="#b8dcf2"/></svg>